<svg id="Capa_1" enable-background="new 0 0 512 512" height="512" viewBox="0 0 512 512" width="512" xmlns="http://www.w3.org/2000/svg"><g><path d="m140.881 492.899 18.096-31.344v-82.727h-60.311v124.782c0 .491.398.89.89.89h48.024c-5.954 0-9.675-6.445-6.699-11.601z" fill="#a298a5"/><path d="m158.978 461.555v-82.727h-40v88.427c0 9.524-7.721 17.245-17.245 17.245h-3.068v19.11c0 .491.398.89.89.89h48.024c-5.954 0-9.675-6.445-6.698-11.601z" fill="#8b818e"/><path d="m342.344 360.365v82.695l28.775 49.84c2.977 5.156-.744 11.601-6.698 11.601h46.076c.564 0 1.021-.457 1.021-1.021v-143.115z" fill="#a298a5"/><path d="m371.517 360.365v96.668c0 8.176-3.572 15.518-9.241 20.55l8.843 15.317c2.977 5.156-.744 11.601-6.698 11.601h46.076c.564 0 1.021-.457 1.021-1.021v-143.115z" fill="#8b818e"/><path d="m398.242 283.327v-147.261c0-20.812-16.872-37.684-37.684-37.684h27.69c13.403 0 24.935-10.3 25.566-23.688.673-14.294-10.717-26.094-24.863-26.094h-58.783c11.679 0 21.083-9.743 20.527-21.544-.522-11.053-10.043-19.556-21.108-19.556h-177.554c-11.35 0-20.55 9.201-20.55 20.55 0 11.35 9.201 20.55 20.55 20.55h88.987c-13.563 0-25.027 10.634-25.399 24.192-.385 14.066 10.902 25.59 24.881 25.59h71.09c-12.1 0-21.843 10.094-21.267 22.32.539 11.452 10.404 20.262 21.869 20.262h35.153c4.569 0 8.272 3.704 8.272 8.272v134.089h42.623z" fill="#8b818e"/><path d="m414.093 328.118h-74.326c-6.413 0-11.612-5.199-11.612-11.612v-29.39c0-2.093 1.697-3.79 3.79-3.79h89.971c2.093 0 3.79 1.697 3.79 3.79v29.39c-.001 6.413-5.2 11.612-11.613 11.612z" fill="#f1f1f4"/><path d="m342.344 389.192h69.173v28.827h-69.173z" fill="#e28086"/><path d="m371.517 389.192h40v28.827h-40z" fill="#dd636e"/><path d="m414.093 328.118h-74.326v30.218c0 1.121.909 2.029 2.029 2.029h70.267c1.121 0 2.029-.909 2.029-2.029v-30.218z" fill="#dfdde2"/><path d="m161.224 350.712h-64.805c-5.591 0-10.124-4.533-10.124-10.124v-25.625c0-1.825 1.479-3.304 3.304-3.304h78.446c1.825 0 3.304 1.479 3.304 3.304v25.625c0 5.591-4.533 10.124-10.125 10.124z" fill="#f1f1f4"/><path d="m98.666 403.963h60.312v25.134h-60.312z" fill="#e28086"/><path d="m118.978 403.963h40v25.134h-40z" fill="#dd636e"/><path d="m161.224 350.712h-64.805v26.347c0 .977.792 1.769 1.769 1.769h61.266c.977 0 1.769-.792 1.769-1.769v-26.347z" fill="#dfdde2"/><path d="m294.515 132.222c-1.171-.248-2.386-.378-3.631-.378h-121.569c-9.4 0-17.489 7.224-17.931 16.613-.473 10.025 7.516 18.302 17.438 18.302h-49.937c-12.017 0-21.693 10.024-21.121 22.167.536 11.373 10.333 20.123 21.719 20.123h23.523c-17.68 0-32.013 14.333-32.013 32.013v70.596h36.207v-59.407c0-3.881 3.146-7.028 7.028-7.028h29.863c9.739 0 18.12-7.484 18.578-17.213.489-10.387-7.787-18.961-18.067-18.961h42.833c11.876 0 21.465-9.79 21.137-21.74-.316-11.518-10.055-20.551-21.577-20.551h63.889c9.642 0 17.458-7.816 17.458-17.458 0-3.427-.988-6.623-2.693-9.319-4.472-1.375-8.38-4.119-11.134-7.759z" fill="#756e78"/><path d="m249.302 305.109-108.421 187.79c-2.977 5.156.744 11.601 6.698 11.601h216.841c5.954 0 9.675-6.445 6.698-11.601l-108.421-187.79c-2.976-5.156-10.418-5.156-13.395 0z" fill="#f6e266"/><path d="m371.119 492.899-108.421-187.79c-2.977-5.156-10.419-5.156-13.396 0l-7.529 13.04 71.391 123.653c10.956 18.977-2.739 42.698-24.652 42.698h-142.781l-4.849 8.399c-2.977 5.156.744 11.601 6.698 11.601h216.841c5.953 0 9.674-6.445 6.698-11.601z" fill="#f4dd45"/><path d="m256 428.971c-7.05 0-12.765-5.715-12.765-12.765v-46.933c0-7.05 5.715-12.765 12.765-12.765 7.05 0 12.765 5.715 12.765 12.765v46.933c0 7.05-5.715 12.765-12.765 12.765z" fill="#665e66"/><circle cx="256" cy="466.735" fill="#665e66" r="12.765"/><path d="m158.978 461.555v-7.324h-60.312v25.135h50.029z" fill="#e28086"/><path d="m118.978 467.255c0 4.72-1.896 8.997-4.968 12.11h34.686l10.283-17.811v-7.324h-40v13.025z" fill="#dd636e"/><path d="m344.53 446.846 16.643 28.827h50.344v-28.827z" fill="#e28086"/><path d="m371.517 457.033c0 7.195-2.767 13.743-7.294 18.64h47.294v-28.827h-40z" fill="#dd636e"/><path d="m421.916 275.827h-16.175v-139.761c0-11.806-4.551-22.569-11.991-30.626 15.137-2.464 26.826-14.93 27.555-30.393.422-8.952-2.744-17.444-8.915-23.912-6.174-6.471-14.497-10.035-23.438-10.035h-33.935c2.306-4.37 3.41-9.297 3.17-14.397-.707-14.974-13.268-26.703-28.6-26.703h-177.554c-15.467 0-28.05 12.583-28.05 28.05s12.583 28.05 28.05 28.05h61.293c-3.144 4.798-5.037 10.446-5.203 16.486-.242 8.828 3.011 17.17 9.161 23.491 6.152 6.323 14.397 9.805 23.217 9.805h45.799c-2.511 4.583-3.721 9.784-3.467 15.173.052 1.115.169 2.212.346 3.288h-113.864c-13.628 0-24.795 10.437-25.423 23.76-.184 3.904.518 7.696 2.025 11.155h-27.033c-7.908 0-15.269 3.152-20.729 8.875-5.457 5.72-8.257 13.229-7.884 21.146.612 13.001 9.98 23.607 22.396 26.493-5.727 6.857-9.176 15.678-9.176 25.29v16.808c0 4.142 3.358 7.5 7.5 7.5s7.5-3.358 7.5-7.5v-16.808c0-13.517 10.996-24.513 24.513-24.513 4.142 0 7.5-3.358 7.5-7.5s-3.358-7.5-7.5-7.5h-23.523c-7.508 0-13.89-5.821-14.227-12.976-.178-3.78 1.155-7.362 3.754-10.086 2.601-2.727 6.108-4.229 9.875-4.229h49.937c4.142 0 7.5-3.358 7.5-7.5s-3.358-7.5-7.5-7.5c-2.749 0-5.308-1.096-7.207-3.086-1.896-1.988-2.87-4.603-2.739-7.363.246-5.22 4.929-9.466 10.439-9.466h121.373c2.689 2.817 5.95 5.099 9.601 6.677.364 1.047.553 2.154.553 3.281 0 5.491-4.467 9.958-9.958 9.958h-63.889c-4.142 0-7.5 3.358-7.5 7.5s3.358 7.5 7.5 7.5c7.563 0 13.879 5.947 14.08 13.257.102 3.724-1.269 7.24-3.858 9.903-2.592 2.664-6.066 4.131-9.782 4.131h-42.832c-4.142 0-7.5 3.358-7.5 7.5s3.358 7.5 7.5 7.5c2.922 0 5.644 1.165 7.662 3.281 2.017 2.114 3.051 4.894 2.913 7.828-.261 5.55-5.234 10.066-11.086 10.066h-29.863c-8.011 0-14.528 6.517-14.528 14.527v51.907h-21.208v-11.288c0-4.142-3.358-7.5-7.5-7.5s-7.5 3.358-7.5 7.5v11.288h-13.892c-5.958 0-10.804 4.847-10.804 10.804v25.625c0 7.037 4.146 13.124 10.124 15.947v20.524c0 2.307.847 4.419 2.247 6.043v120.508c0 4.626 3.764 8.39 8.39 8.39h310.941c4.698 0 8.521-3.822 8.521-8.521v-138.633c1.597-1.705 2.577-3.995 2.577-6.51v-24.251c6.821-2.921 11.611-9.701 11.611-17.578v-29.39c-.001-6.226-5.065-11.29-11.29-11.29zm-3.711 40.679c0 2.267-1.845 4.112-4.111 4.112h-74.326c-2.268 0-4.112-1.845-4.112-4.112v-25.679h82.55v25.679zm-14.188 65.186h-54.173v-13.827h54.173zm-54.173 43.827h54.173v13.827h-54.173zm0-15v-13.827h54.173v13.827zm7.676 43.827h46.497v13.827h-38.514zm49.074-101.481h-59.326v-17.247h59.326zm-166.092-261.983c-4.736 0-9.163-1.87-12.466-5.265-3.301-3.394-5.048-7.875-4.918-12.62.255-9.317 8.286-16.897 17.902-16.897 4.142 0 7.5-3.358 7.5-7.5s-3.358-7.5-7.5-7.5h-88.986c-7.196 0-13.05-5.854-13.05-13.05s5.853-13.05 13.049-13.05h177.554c7.186 0 13.294 5.566 13.616 12.41.17 3.615-1.104 7.041-3.591 9.646-2.487 2.608-5.842 4.044-9.444 4.044-4.143 0-7.5 3.358-7.5 7.5s3.357 7.5 7.5 7.5h58.783c4.801 0 9.27 1.914 12.585 5.389 3.312 3.472 5.013 8.037 4.786 12.853-.431 9.121-8.538 16.541-18.074 16.541h-27.69c-4.143 0-7.5 3.358-7.5 7.5s3.357 7.5 7.5 7.5c16.644 0 30.184 13.541 30.184 30.184v139.761h-27.622v-126.591c0-8.697-7.075-15.772-15.772-15.772h-35.153c-7.587 0-14.036-5.883-14.376-13.115-.181-3.82 1.167-7.44 3.794-10.193 2.629-2.756 6.174-4.274 9.98-4.274 4.143 0 7.5-3.358 7.5-7.5s-3.357-7.5-7.5-7.5h-71.091zm-146.707 228.277h70.054v21.429c0 1.447-1.177 2.624-2.625 2.624h-64.805c-1.447 0-2.624-1.177-2.624-2.624zm59.929 39.053v13.116h-49.805v-13.116zm-2.246 38.25h-45.312v-10.134h45.312zm0 15v10.135h-45.312v-10.135zm-45.312 50.269h1.387c4.142 0 7.5-3.358 7.5-7.5s-3.358-7.5-7.5-7.5h-1.387v-10.134h45.312v10.134h-8.925c-4.142 0-7.5 3.358-7.5 7.5s3.358 7.5 7.5 7.5h7.663l-5.851 10.134h-38.199zm0 25.135h29.539l-1.318 2.284c-1.418 2.456-2.105 5.157-2.063 7.851h-26.157v-10.135zm41.396 10.134c-.081 0-.122-.007-.186-.117-.067-.117-.046-.154 0-.234 13.433-23.263 92.312-159.888 108.421-187.791.046-.08.067-.117.202-.117s.158.04.203.117l43.556 75.441c2.07 3.588 6.659 4.817 10.245 2.745 3.587-2.071 4.816-6.658 2.745-10.245l-43.556-75.442c-2.755-4.77-7.687-7.617-13.194-7.617s-10.439 2.848-13.192 7.617l-76.329 132.205v-50.463c1.399-1.624 2.246-3.736 2.246-6.043v-20.523c5.978-2.823 10.125-8.91 10.125-15.947v-25.625c0-5.958-4.847-10.804-10.804-10.804h-13.344v-51.435h29.391c13.975 0 25.426-10.701 26.069-24.36.195-4.146-.584-8.167-2.245-11.814h19.519c7.8 0 15.092-3.079 20.533-8.671 5.438-5.59 8.316-12.967 8.102-20.774-.126-4.63-1.401-9-3.548-12.846h38.363c14.079 0 25.411-11.695 24.944-25.794h31.519c.426 0 .772.347.772.772v126.589h-16.174c-6.226 0-11.29 5.064-11.29 11.29v29.39c0 7.877 4.791 14.657 11.612 17.578v24.251c0 2.515.979 4.804 2.576 6.509v50.225l-4.076-7.06c-2.07-3.587-6.659-4.817-10.245-2.745-3.587 2.071-4.816 6.658-2.745 10.245 8.401 14.552 45.001 77.946 46.846 81.141.047.08.067.117 0 .233-.063.11-.104.117-.185.117-.272.003-217.101.001-216.876.002zm232.115 0c.042-2.694-.646-5.395-2.064-7.851l-3.45-5.976h29.854v13.827z"/><path d="m256 436.471c11.174 0 20.265-9.091 20.265-20.265v-46.934c0-11.174-9.091-20.265-20.265-20.265s-20.265 9.091-20.265 20.265v46.934c0 11.174 9.091 20.265 20.265 20.265zm-5.265-67.199c0-2.903 2.362-5.265 5.265-5.265s5.265 2.362 5.265 5.265v46.934c0 2.903-2.361 5.265-5.265 5.265-2.903 0-5.265-2.362-5.265-5.265z"/><path d="m256 487c11.174 0 20.265-9.091 20.265-20.265s-9.091-20.265-20.265-20.265-20.265 9.091-20.265 20.265 9.091 20.265 20.265 20.265zm0-25.529c2.903 0 5.265 2.362 5.265 5.265s-2.362 5.264-5.265 5.264-5.265-2.362-5.265-5.265 2.362-5.264 5.265-5.264z"/></g></svg>